<svg width="19" height="18" viewBox="0 0 19 18" fill="none" xmlns="http://www.w3.org/2000/svg">
<path d="M6.80058 0.911987L9.36135 3.47275C9.39549 3.50689 9.45084 3.50689 9.48498 3.47275L12.0457 0.911987M5.92639 12.2765L8.21167 9.82798C8.23873 9.79899 8.28191 9.79185 8.31686 9.81057L10.5224 10.9921C10.5606 11.0126 10.6079 11.002 10.6338 10.9674L12.9199 7.90554M4.35284 3.53457H14.4935C15.4727 3.53457 15.9623 3.53457 16.3363 3.72513C16.6652 3.89275 16.9327 4.16022 17.1003 4.4892C17.2909 4.8632 17.2909 5.3528 17.2909 6.33199V13.8501C17.2909 14.8292 17.2909 15.3188 17.1003 15.6928C16.9327 16.0218 16.6652 16.2893 16.3363 16.4569C15.9623 16.6475 15.4727 16.6475 14.4935 16.6475H4.35284C3.37365 16.6475 2.88406 16.6475 2.51006 16.4569C2.18108 16.2893 1.91361 16.0218 1.74598 15.6928C1.55542 15.3188 1.55542 14.8292 1.55542 13.8501V6.33199C1.55542 5.3528 1.55542 4.8632 1.74598 4.4892C1.91361 4.16022 2.18108 3.89275 2.51006 3.72513C2.88406 3.53457 3.37365 3.53457 4.35284 3.53457Z" stroke="white" stroke-width="1.74839" stroke-linecap="round"/>
</svg>
