<svg width="19" height="17" viewBox="0 0 19 17" fill="none" xmlns="http://www.w3.org/2000/svg">
<path d="M6.79936 3.65319C6.91235 3.6531 7.02885 3.6531 7.14904 3.6531H11.6948C11.815 3.6531 11.9315 3.6531 12.0445 3.65319M6.79936 3.65319C5.07134 3.65453 4.16557 3.67649 3.46347 4.03422C2.80551 4.36947 2.27057 4.90441 1.93532 5.56237C1.5542 6.31037 1.5542 7.28956 1.5542 9.24794V10.297C1.5542 12.2553 1.5542 13.2345 1.93532 13.9825C2.27057 14.6405 2.80551 15.1754 3.46347 15.5107C4.21147 15.8918 5.19066 15.8918 7.14904 15.8918H11.6948C13.6532 15.8918 14.6324 15.8918 15.3804 15.5107C16.0384 15.1754 16.5733 14.6405 16.9086 13.9825C17.2897 13.2345 17.2897 12.2553 17.2897 10.297V9.24794C17.2897 7.28956 17.2897 6.31037 16.9086 5.56237C16.5733 4.90441 16.0384 4.36947 15.3804 4.03422C14.6783 3.67649 13.7725 3.65453 12.0445 3.65319M6.79936 3.65319V2.7789C6.79936 1.8133 7.58214 1.03052 8.54775 1.03052H10.2961C11.2617 1.03052 12.0445 1.8133 12.0445 2.7789V3.65319M12.0445 9.77245C12.0445 11.2209 10.8704 12.395 9.42194 12.395C7.97353 12.395 6.79936 11.2209 6.79936 9.77245C6.79936 8.32404 7.97353 7.14987 9.42194 7.14987C10.8704 7.14987 12.0445 8.32404 12.0445 9.77245Z" stroke="white" stroke-width="1.74839" stroke-linecap="round"/>
</svg>
