<svg width="19" height="15" viewBox="0 0 19 15" fill="none" xmlns="http://www.w3.org/2000/svg">
<path d="M1.77864 8.95876C1.48004 8.30914 1.48004 7.5597 1.77864 6.91007C3.16083 3.90301 6.19951 1.81506 9.72586 1.81506C13.2522 1.81506 16.2909 3.90301 17.6731 6.91008C17.9717 7.5597 17.9717 8.30914 17.6731 8.95877C16.2909 11.9658 13.2522 14.0538 9.72586 14.0538C6.19951 14.0538 3.16083 11.9658 1.77864 8.95876Z" stroke="white" stroke-width="1.74839"/>
<path d="M12.3484 7.93442C12.3484 9.38283 11.1743 10.557 9.72586 10.557C8.27745 10.557 7.10328 9.38283 7.10328 7.93442C7.10328 6.48601 8.27745 5.31184 9.72586 5.31184C11.1743 5.31184 12.3484 6.48601 12.3484 7.93442Z" stroke="white" stroke-width="1.74839"/>
</svg>
