<svg width="27" height="27" viewBox="0 0 27 27" fill="none" xmlns="http://www.w3.org/2000/svg">
<path d="M9.73345 4.48212H6.05854C4.58844 4.48212 3.85339 4.48212 3.29188 4.76822C2.79797 5.01988 2.39641 5.42144 2.14474 5.91536C1.85864 6.47686 1.85864 7.21191 1.85864 8.68201V21.2817C1.85864 22.7518 1.85864 23.4869 2.14474 24.0484C2.39641 24.5423 2.79797 24.9438 3.29188 25.1955C3.85339 25.4816 4.58844 25.4816 6.05854 25.4816H21.2832C22.7533 25.4816 23.4883 25.4816 24.0498 25.1955C24.5438 24.9438 24.9453 24.5423 25.197 24.0484C25.4831 23.4869 25.4831 22.7518 25.4831 21.2817V8.68201C25.4831 7.21191 25.4831 6.47686 25.197 5.91536C24.9453 5.42144 24.5438 5.01988 24.0498 4.76822C23.4883 4.48212 22.7533 4.48212 21.2832 4.48212H17.6083H9.73345Z" fill="white"/>
<path d="M17.6083 13.6694L12.8224 18.4552C12.5661 18.7115 12.1506 18.7115 11.8944 18.4552L9.73345 16.2943M1.85864 9.73199H25.4831M9.73345 4.48212H6.05854C4.58844 4.48212 3.85339 4.48212 3.29188 4.76822C2.79797 5.01988 2.39641 5.42144 2.14474 5.91536C1.85864 6.47686 1.85864 7.21191 1.85864 8.68201V21.2817C1.85864 22.7518 1.85864 23.4869 2.14474 24.0484C2.39641 24.5423 2.79797 24.9438 3.29188 25.1955C3.85339 25.4816 4.58844 25.4816 6.05854 25.4816H21.2832C22.7533 25.4816 23.4883 25.4816 24.0498 25.1955C24.5438 24.9438 24.9453 24.5423 25.197 24.0484C25.4831 23.4869 25.4831 22.7518 25.4831 21.2817V8.68201C25.4831 7.21191 25.4831 6.47686 25.197 5.91536C24.9453 5.42144 24.5438 5.01988 24.0498 4.76822C23.4883 4.48212 22.7533 4.48212 21.2832 4.48212H17.6083M9.73345 4.48212H17.6083M9.73345 4.48212V3.82588C9.73345 2.7386 8.85204 1.85718 7.76475 1.85718C6.67747 1.85718 5.79605 2.7386 5.79605 3.82588V4.48212M17.6083 4.48212V3.82588C17.6083 2.7386 18.4897 1.85718 19.577 1.85718C20.6643 1.85718 21.5457 2.7386 21.5457 3.82588V4.48212" stroke="#784516" stroke-width="1.74839" stroke-linecap="round"/>
</svg>
