<svg width="27" height="25" viewBox="0 0 27 25" fill="none" xmlns="http://www.w3.org/2000/svg">
<path d="M1.85864 13.9085C1.85864 10.9683 1.85864 9.49819 2.43084 8.37518C2.93417 7.38735 3.7373 6.58422 4.72512 6.0809C5.77921 5.54381 7.1391 5.51085 9.73345 5.50883C9.90309 5.50869 10.078 5.50869 10.2584 5.50869H17.0833C17.2637 5.50869 17.4386 5.50869 17.6083 5.50883C20.2026 5.51085 21.5625 5.54381 22.6166 6.0809C23.6044 6.58422 24.4076 7.38735 24.9109 8.37518C25.4831 9.49819 25.4831 10.9683 25.4831 13.9085V15.4835C25.4831 18.4237 25.4831 19.8938 24.9109 21.0168C24.4076 22.0046 23.6044 22.8077 22.6166 23.3111C21.4936 23.8833 20.0235 23.8833 17.0833 23.8833H10.2584C7.31824 23.8833 5.84813 23.8833 4.72512 23.3111C3.7373 22.8077 2.93417 22.0046 2.43084 21.0168C1.85864 19.8938 1.85864 18.4237 1.85864 15.4835V13.9085Z" fill="white"/>
<path d="M17.6083 14.696C17.6083 16.8705 15.8454 18.6334 13.6709 18.6334C11.4963 18.6334 9.73345 16.8705 9.73345 14.696C9.73345 12.5214 11.4963 10.7586 13.6709 10.7586C15.8454 10.7586 17.6083 12.5214 17.6083 14.696Z" fill="white"/>
<path d="M9.73345 5.50883C9.90309 5.50869 10.078 5.50869 10.2584 5.50869H17.0833C17.2637 5.50869 17.4386 5.50869 17.6083 5.50883M9.73345 5.50883C7.1391 5.51085 5.77921 5.54381 4.72512 6.0809C3.7373 6.58422 2.93417 7.38735 2.43084 8.37518C1.85864 9.49819 1.85864 10.9683 1.85864 13.9085V15.4835C1.85864 18.4237 1.85864 19.8938 2.43084 21.0168C2.93417 22.0046 3.7373 22.8077 4.72512 23.3111C5.84813 23.8833 7.31824 23.8833 10.2584 23.8833H17.0833C20.0235 23.8833 21.4936 23.8833 22.6166 23.3111C23.6044 22.8077 24.4076 22.0046 24.9109 21.0168C25.4831 19.8938 25.4831 18.4237 25.4831 15.4835V13.9085C25.4831 10.9683 25.4831 9.49819 24.9109 8.37518C24.4076 7.38735 23.6044 6.58422 22.6166 6.0809C21.5625 5.54381 20.2026 5.51085 17.6083 5.50883M9.73345 5.50883V4.19623C9.73345 2.74651 10.9087 1.57129 12.3584 1.57129H14.9833C16.433 1.57129 17.6083 2.74651 17.6083 4.19623V5.50883M17.6083 14.696C17.6083 16.8705 15.8454 18.6334 13.6709 18.6334C11.4963 18.6334 9.73345 16.8705 9.73345 14.696C9.73345 12.5214 11.4963 10.7586 13.6709 10.7586C15.8454 10.7586 17.6083 12.5214 17.6083 14.696Z" stroke="#784516" stroke-width="1.74839" stroke-linecap="round"/>
</svg>
