<svg width="27" height="27" viewBox="0 0 27 27" fill="none" xmlns="http://www.w3.org/2000/svg">
<path d="M1.85864 21.2815C1.85864 22.7516 1.85864 23.4866 2.14474 24.0481C2.39641 24.542 2.79797 24.9436 3.29188 25.1953C3.85339 25.4814 4.58844 25.4814 6.05854 25.4814H21.2832C22.7533 25.4814 23.4883 25.4814 24.0498 25.1953C24.5438 24.9436 24.9453 24.542 25.197 24.0481C25.4831 23.4866 25.4831 22.7516 25.4831 21.2815V9.99424C25.4831 8.52414 25.4831 7.78909 25.197 7.22758C24.9453 6.73367 24.5438 6.3321 24.0498 6.08044C23.4883 5.79434 22.7533 5.79434 21.2832 5.79434H6.05854C4.58844 5.79434 3.85339 5.79434 3.29188 6.08044C2.79797 6.3321 2.39641 6.73367 2.14474 7.22758C1.85864 7.78909 1.85864 8.52414 1.85864 9.99424V21.2815Z" fill="white"/>
<path d="M9.73345 1.85693L13.5781 5.70153C13.6293 5.75279 13.7124 5.75279 13.7637 5.70153L17.6083 1.85693M8.42099 18.919L11.852 15.2429C11.8926 15.1994 11.9574 15.1887 12.0099 15.2168L15.3213 16.9907C15.3785 17.0214 15.4495 17.0056 15.4884 16.9536L18.9207 12.3567M6.05854 5.79434H21.2832C22.7533 5.79434 23.4883 5.79434 24.0498 6.08044C24.5438 6.3321 24.9453 6.73367 25.197 7.22758C25.4831 7.78909 25.4831 8.52414 25.4831 9.99424V21.2815C25.4831 22.7516 25.4831 23.4866 25.197 24.0481C24.9453 24.542 24.5438 24.9436 24.0498 25.1953C23.4883 25.4814 22.7533 25.4814 21.2832 25.4814H6.05854C4.58844 25.4814 3.85339 25.4814 3.29188 25.1953C2.79797 24.9436 2.39641 24.542 2.14474 24.0481C1.85864 23.4866 1.85864 22.7516 1.85864 21.2815V9.99424C1.85864 8.52414 1.85864 7.78909 2.14474 7.22758C2.39641 6.73367 2.79797 6.3321 3.29188 6.08044C3.85339 5.79434 4.58844 5.79434 6.05854 5.79434Z" stroke="#784516" stroke-width="1.74839" stroke-linecap="round"/>
</svg>
