<svg width="28" height="21" viewBox="0 0 28 21" fill="none" xmlns="http://www.w3.org/2000/svg">
<path d="M2.19487 12.4393C1.74657 11.464 1.74657 10.3388 2.19487 9.36349C4.27002 4.84885 8.83214 1.71411 14.1264 1.71411C19.4207 1.71411 23.9828 4.84885 26.058 9.3635C26.5063 10.3388 26.5063 11.464 26.058 12.4393C23.9828 16.9539 19.4207 20.0887 14.1264 20.0887C8.83214 20.0887 4.27002 16.9539 2.19487 12.4393Z" fill="white"/>
<path d="M18.0638 10.9014C18.0638 13.076 16.301 14.8388 14.1264 14.8388C11.9519 14.8388 10.189 13.076 10.189 10.9014C10.189 8.72682 11.9519 6.96398 14.1264 6.96398C16.301 6.96398 18.0638 8.72682 18.0638 10.9014Z" fill="white"/>
<path d="M2.19487 12.4393C1.74657 11.464 1.74657 10.3388 2.19487 9.36349C4.27002 4.84885 8.83214 1.71411 14.1264 1.71411C19.4207 1.71411 23.9828 4.84885 26.058 9.3635C26.5063 10.3388 26.5063 11.464 26.058 12.4393C23.9828 16.9539 19.4207 20.0887 14.1264 20.0887C8.83214 20.0887 4.27002 16.9539 2.19487 12.4393Z" stroke="#784516" stroke-width="1.74839"/>
<path d="M18.0638 10.9014C18.0638 13.076 16.301 14.8388 14.1264 14.8388C11.9519 14.8388 10.189 13.076 10.189 10.9014C10.189 8.72682 11.9519 6.96398 14.1264 6.96398C16.301 6.96398 18.0638 8.72682 18.0638 10.9014Z" stroke="#784516" stroke-width="1.74839"/>
</svg>
