<svg width="30" height="30" viewBox="0 0 30 30" fill="none" xmlns="http://www.w3.org/2000/svg">
<path fill-rule="evenodd" clip-rule="evenodd" d="M12.6176 20.2353C16.8247 20.2353 20.2353 16.8247 20.2353 12.6176C20.2353 8.41053 16.8247 5 12.6176 5C8.41053 5 5 8.41053 5 12.6176C5 16.8247 8.41053 20.2353 12.6176 20.2353ZM12.6176 22.2353C17.9293 22.2353 22.2353 17.9293 22.2353 12.6176C22.2353 7.30596 17.9293 3 12.6176 3C7.30596 3 3 7.30596 3 12.6176C3 17.9293 7.30596 22.2353 12.6176 22.2353Z" fill="#777777"/>
<path d="M18.4746 18.5342C18.8821 18.1267 19.5428 18.1267 19.9503 18.5342L26.2621 24.8461C26.6697 25.2536 26.6697 25.9143 26.2621 26.3218C25.8546 26.7293 25.194 26.7293 24.7864 26.3218L18.4746 20.0099C18.0671 19.6024 18.0671 18.9417 18.4746 18.5342Z" fill="#777777"/>
</svg>
