<svg width="19" height="19" viewBox="0 0 19 19" fill="none" xmlns="http://www.w3.org/2000/svg">
<path d="M12.045 9.42243L8.85731 12.6101C8.68661 12.7808 8.40986 12.7808 8.23916 12.6101L6.79985 11.1708M1.55469 6.79985H17.2902M6.79985 3.30307H4.35211C3.37292 3.30307 2.88332 3.30307 2.50932 3.49364C2.18034 3.66126 1.91287 3.92873 1.74525 4.25771C1.55469 4.63171 1.55469 5.12131 1.55469 6.10049V14.4928C1.55469 15.4719 1.55469 15.9615 1.74525 16.3355C1.91287 16.6645 2.18034 16.932 2.50932 17.0996C2.88332 17.2902 3.37292 17.2902 4.35211 17.2902H14.4928C15.4719 17.2902 15.9615 17.2902 16.3355 17.0996C16.6645 16.932 16.932 16.6645 17.0996 16.3355C17.2902 15.9615 17.2902 15.4719 17.2902 14.4928V6.10049C17.2902 5.12131 17.2902 4.63171 17.0996 4.25771C16.932 3.92873 16.6645 3.66126 16.3355 3.49364C15.9615 3.30307 15.4719 3.30307 14.4928 3.30307H12.045M6.79985 3.30307H12.045M6.79985 3.30307V2.86598C6.79985 2.14177 6.21276 1.55469 5.48856 1.55469C4.76435 1.55469 4.17727 2.14177 4.17727 2.86598V3.30307M12.045 3.30307V2.86598C12.045 2.14177 12.6321 1.55469 13.3563 1.55469C14.0805 1.55469 14.6676 2.14177 14.6676 2.86598V3.30307" stroke="white" stroke-width="1.74839" stroke-linecap="round"/>
</svg>
